<?xml version="1.0" encoding="utf-8"?>
<!-- Generator: Adobe Illustrator 16.0.4, SVG Export Plug-In . SVG Version: 6.00 Build 0)  -->
<!DOCTYPE svg PUBLIC "-//W3C//DTD SVG 1.1//EN" "http://www.w3.org/Graphics/SVG/1.1/DTD/svg11.dtd">
<svg version="1.1" id="Layer_1" xmlns="http://www.w3.org/2000/svg" xmlns:xlink="http://www.w3.org/1999/xlink" x="0px" y="0px"
	 width="335.526px" height="196.098px" viewBox="0 0 335.526 196.098" enable-background="new 0 0 335.526 196.098"
	 xml:space="preserve">
<g>
	<path fill="#FFFFFF" d="M131.037,56.292c-0.853,0-1.712-0.203-2.516-0.623c-2.655-1.392-3.679-4.669-2.288-7.326l14.213-27.123
		c0.881-1.682,2.578-2.78,4.474-2.896c1.894-0.112,3.713,0.762,4.797,2.329l5.581,8.073l9.945-25.286
		c0.753-1.907,2.511-3.231,4.551-3.422c2.05-0.165,4.012,0.792,5.099,2.527l11.459,18.296l8.146-8.475
		c2.075-2.161,5.511-2.23,7.673-0.154c2.159,2.082,2.229,5.514,0.152,7.676l-12.97,13.489c-1.157,1.206-2.815,1.813-4.47,1.64
		c-1.66-0.177-3.152-1.101-4.044-2.521l-9.436-15.07l-9.733,24.744c-0.733,1.866-2.434,3.174-4.428,3.405
		c-1.986,0.231-3.948-0.658-5.086-2.305l-6.264-9.062l-10.051,19.173C134.875,55.233,132.988,56.292,131.037,56.292L131.037,56.292z
		"/>
	<g>
		<path fill="#FFFFFF" d="M183.468,70.34c0,8.022-6.503,14.527-14.526,14.527c-8.027,0-14.527-6.505-14.527-14.527
			c0-8.024,6.5-14.532,14.527-14.532C176.965,55.808,183.468,62.315,183.468,70.34z"/>
		<path fill="#FFFFFF" d="M166.67,108.976c-21.347,0-38.711-17.364-38.711-38.707c0-2.996,2.43-5.426,5.427-5.426
			c2.995,0,5.425,2.43,5.425,5.426c0,15.359,12.497,27.854,27.859,27.854c15.131,0,25.448-6.352,30.66-18.868
			c3.945-9.489,0.452-24.694-2.447-29.847c-1.469-2.612-0.544-5.923,2.065-7.392c2.612-1.473,5.922-0.548,7.392,2.064
			c4.561,8.092,8.251,26.757,3.007,39.347C200.489,99.904,186.044,108.976,166.67,108.976L166.67,108.976z"/>
	</g>
</g>
<g>
	<g>
		<path fill="#FFFFFF" d="M17.675,144.982c-0.16,0.278-0.329,0.482-0.509,0.609c-0.181,0.126-0.403,0.188-0.67,0.188
			c-0.279,0-0.583-0.104-0.909-0.309c-0.326-0.206-0.715-0.437-1.168-0.689c-0.453-0.253-0.981-0.482-1.587-0.689
			c-0.606-0.207-1.322-0.31-2.147-0.31c-0.746,0-1.398,0.09-1.957,0.271c-0.559,0.179-1.028,0.43-1.408,0.748
			c-0.379,0.319-0.663,0.703-0.849,1.148c-0.187,0.447-0.28,0.937-0.28,1.468c0,0.68,0.189,1.245,0.569,1.697
			c0.379,0.453,0.882,0.84,1.507,1.159c0.626,0.319,1.339,0.606,2.138,0.859c0.799,0.252,1.617,0.521,2.457,0.808
			c0.838,0.287,1.658,0.619,2.457,0.999c0.799,0.379,1.51,0.858,2.137,1.438c0.625,0.578,1.128,1.288,1.507,2.127
			c0.38,0.838,0.57,1.857,0.57,3.056c0,1.305-0.223,2.526-0.669,3.665c-0.446,1.138-1.098,2.13-1.957,2.976
			c-0.859,0.845-1.907,1.512-3.146,1.998c-1.239,0.484-2.656,0.729-4.254,0.729c-0.918,0-1.824-0.091-2.716-0.27
			c-0.891-0.181-1.747-0.437-2.566-0.77c-0.818-0.333-1.588-0.731-2.307-1.199c-0.719-0.466-1.358-0.984-1.917-1.557l1.577-2.576
			c0.133-0.187,0.307-0.343,0.52-0.47c0.213-0.126,0.439-0.19,0.679-0.19c0.333,0,0.693,0.137,1.078,0.41
			c0.387,0.273,0.846,0.575,1.379,0.908c0.532,0.334,1.155,0.636,1.867,0.909c0.713,0.272,1.568,0.409,2.567,0.409
			c1.53,0,2.715-0.362,3.555-1.089c0.838-0.726,1.258-1.768,1.258-3.125c0-0.759-0.19-1.379-0.568-1.858
			c-0.38-0.479-0.883-0.882-1.509-1.208c-0.626-0.325-1.338-0.602-2.136-0.829c-0.799-0.227-1.611-0.472-2.437-0.738
			c-0.827-0.267-1.638-0.586-2.438-0.959c-0.799-0.372-1.511-0.858-2.137-1.457c-0.626-0.599-1.128-1.348-1.507-2.248
			c-0.379-0.897-0.569-2.007-0.569-3.325c0-1.051,0.209-2.077,0.629-3.074c0.419-1,1.028-1.885,1.828-2.657
			c0.799-0.772,1.784-1.392,2.956-1.857s2.517-0.699,4.035-0.699c1.704,0,3.275,0.267,4.712,0.799
			c1.439,0.532,2.663,1.278,3.675,2.236L17.675,144.982z"/>
		<path fill="#FFFFFF" d="M37.307,152.451c-0.146,0.188-0.289,0.333-0.429,0.439c-0.14,0.107-0.343,0.159-0.609,0.159
			c-0.253,0-0.5-0.076-0.739-0.229c-0.24-0.153-0.526-0.326-0.859-0.519c-0.333-0.193-0.729-0.366-1.188-0.52
			c-0.46-0.153-1.029-0.229-1.708-0.229c-0.865,0-1.625,0.156-2.277,0.47c-0.651,0.312-1.194,0.762-1.627,1.348
			c-0.432,0.586-0.756,1.295-0.968,2.127c-0.213,0.832-0.32,1.773-0.32,2.825c0,1.092,0.117,2.064,0.349,2.917
			c0.233,0.853,0.57,1.567,1.009,2.147c0.44,0.578,0.972,1.018,1.598,1.318c0.625,0.299,1.331,0.448,2.116,0.448
			s1.421-0.096,1.908-0.289c0.486-0.193,0.895-0.407,1.229-0.64c0.333-0.232,0.622-0.445,0.869-0.639
			c0.247-0.192,0.522-0.289,0.829-0.289c0.399,0,0.699,0.151,0.898,0.459l1.418,1.798c-0.546,0.638-1.139,1.174-1.778,1.607
			c-0.64,0.433-1.301,0.779-1.987,1.039c-0.686,0.258-1.392,0.441-2.116,0.548c-0.727,0.107-1.449,0.16-2.168,0.16
			c-1.265,0-2.457-0.236-3.575-0.708c-1.118-0.474-2.097-1.163-2.936-2.069c-0.838-0.903-1.501-2.012-1.987-3.324
			c-0.486-1.311-0.729-2.807-0.729-4.484c0-1.504,0.216-2.897,0.65-4.184c0.432-1.285,1.068-2.396,1.907-3.335
			c0.838-0.939,1.877-1.674,3.115-2.207c1.239-0.533,2.663-0.799,4.273-0.799c1.531,0,2.873,0.246,4.025,0.738
			c1.151,0.492,2.186,1.198,3.104,2.117L37.307,152.451z"/>
		<path fill="#FFFFFF" d="M50.249,147.798c1.292,0,2.483,0.206,3.575,0.619c1.091,0.412,2.03,1.016,2.816,1.807
			c0.786,0.793,1.401,1.765,1.848,2.917c0.445,1.151,0.669,2.466,0.669,3.944c0,0.745-0.08,1.247-0.24,1.507
			c-0.16,0.261-0.466,0.391-0.918,0.391H45.316c0.079,1.052,0.266,1.96,0.558,2.726c0.293,0.767,0.679,1.398,1.159,1.896
			c0.479,0.5,1.049,0.874,1.708,1.119c0.659,0.247,1.388,0.37,2.187,0.37c0.798,0,1.487-0.093,2.067-0.28
			c0.579-0.187,1.084-0.393,1.517-0.619s0.812-0.432,1.138-0.619c0.327-0.186,0.643-0.278,0.949-0.278
			c0.412,0,0.719,0.151,0.919,0.459l1.417,1.798c-0.546,0.638-1.158,1.174-1.837,1.607c-0.679,0.433-1.389,0.779-2.128,1.039
			c-0.739,0.258-1.491,0.441-2.256,0.548c-0.765,0.107-1.507,0.16-2.227,0.16c-1.424,0-2.749-0.236-3.974-0.708
			c-1.226-0.474-2.291-1.172-3.196-2.099c-0.905-0.925-1.618-2.07-2.136-3.435c-0.52-1.365-0.779-2.945-0.779-4.743
			c0-1.398,0.225-2.713,0.678-3.945c0.452-1.23,1.102-2.303,1.947-3.215c0.846-0.912,1.877-1.634,3.095-2.167
			C47.344,148.063,48.718,147.798,50.249,147.798z M50.349,151.333c-1.438,0-2.564,0.406-3.375,1.218
			c-0.812,0.813-1.332,1.964-1.558,3.455h9.307c0-0.638-0.089-1.242-0.269-1.807c-0.18-0.566-0.45-1.062-0.81-1.488
			c-0.359-0.426-0.816-0.762-1.368-1.009C51.724,151.456,51.081,151.333,50.349,151.333z"/>
		<path fill="#FFFFFF" d="M62.052,168.608v-20.49h3.016c0.64,0,1.059,0.299,1.258,0.897l0.339,1.618
			c0.413-0.427,0.849-0.812,1.309-1.158c0.458-0.346,0.945-0.646,1.458-0.898c0.513-0.253,1.062-0.446,1.647-0.579
			s1.225-0.2,1.918-0.2c1.118,0,2.11,0.19,2.976,0.569c0.865,0.379,1.588,0.912,2.167,1.598s1.019,1.505,1.318,2.457
			s0.449,2,0.449,3.145v13.042h-4.933v-13.042c0-1.25-0.286-2.22-0.859-2.905c-0.572-0.687-1.444-1.029-2.616-1.029
			c-0.853,0-1.651,0.194-2.396,0.58c-0.746,0.386-1.452,0.912-2.117,1.577v14.819H62.052z"/>
		<path fill="#FFFFFF" d="M97.982,168.608c-0.466,0-0.825-0.069-1.078-0.21c-0.254-0.14-0.453-0.422-0.6-0.849l-0.438-1.458
			c-0.52,0.466-1.026,0.876-1.518,1.229c-0.493,0.353-1.005,0.648-1.538,0.89c-0.532,0.239-1.102,0.419-1.708,0.538
			c-0.606,0.12-1.275,0.181-2.007,0.181c-0.866,0-1.665-0.117-2.396-0.351c-0.733-0.232-1.365-0.582-1.897-1.048
			c-0.533-0.466-0.946-1.046-1.239-1.737c-0.293-0.692-0.439-1.499-0.439-2.418c0-0.771,0.203-1.533,0.609-2.287
			c0.406-0.75,1.082-1.43,2.027-2.036c0.945-0.605,2.204-1.107,3.775-1.508c1.57-0.399,3.527-0.626,5.871-0.679v-1.198
			c0-1.371-0.293-2.387-0.878-3.046c-0.586-0.659-1.432-0.989-2.536-0.989c-0.799,0-1.461,0.094-1.987,0.28s-0.989,0.396-1.388,0.63
			c-0.4,0.232-0.763,0.442-1.09,0.628c-0.325,0.187-0.688,0.279-1.088,0.279c-0.346,0-0.639-0.089-0.879-0.27
			c-0.239-0.179-0.433-0.389-0.579-0.629l-0.879-1.577c2.357-2.157,5.193-3.235,8.509-3.235c1.198,0,2.27,0.195,3.215,0.589
			c0.945,0.393,1.744,0.938,2.396,1.638c0.653,0.698,1.149,1.534,1.488,2.506c0.339,0.972,0.51,2.038,0.51,3.196v12.941H97.982z
			 M90.612,165.532c1.012,0,1.887-0.182,2.626-0.549c0.739-0.366,1.461-0.922,2.167-1.668v-3.455
			c-1.438,0.067-2.639,0.19-3.604,0.369c-0.965,0.181-1.741,0.411-2.327,0.689c-0.586,0.28-1.006,0.606-1.259,0.979
			c-0.252,0.374-0.379,0.78-0.379,1.218c0,0.866,0.257,1.486,0.769,1.858C89.118,165.347,89.787,165.532,90.612,165.532z"/>
		<path fill="#FFFFFF" d="M104.852,168.608v-20.49h2.896c0.506,0,0.858,0.089,1.058,0.269c0.201,0.18,0.333,0.503,0.399,0.968
			l0.28,2.318c0.652-1.226,1.417-2.188,2.296-2.887c0.879-0.698,1.917-1.048,3.116-1.048c0.945,0,1.705,0.205,2.277,0.619
			l-0.319,3.695c-0.067,0.239-0.164,0.408-0.29,0.508c-0.127,0.101-0.296,0.15-0.509,0.15c-0.2,0-0.497-0.033-0.889-0.101
			c-0.393-0.065-0.776-0.099-1.148-0.099c-0.546,0-1.032,0.079-1.458,0.239c-0.426,0.16-0.81,0.39-1.148,0.688
			c-0.34,0.3-0.64,0.663-0.899,1.088c-0.26,0.427-0.503,0.913-0.729,1.46v12.621H104.852z"/>
		<path fill="#FFFFFF" d="M125.543,142.146c0,0.426-0.086,0.826-0.26,1.198c-0.172,0.373-0.403,0.699-0.689,0.979
			c-0.286,0.28-0.622,0.503-1.008,0.67c-0.386,0.166-0.798,0.249-1.238,0.249c-0.426,0-0.829-0.083-1.208-0.249
			c-0.379-0.167-0.709-0.39-0.988-0.67c-0.28-0.279-0.502-0.605-0.669-0.979c-0.167-0.372-0.25-0.772-0.25-1.198
			c0-0.439,0.083-0.852,0.25-1.237c0.167-0.387,0.389-0.719,0.669-1c0.279-0.278,0.609-0.502,0.988-0.668
			c0.38-0.167,0.782-0.25,1.208-0.25c0.439,0,0.852,0.083,1.238,0.25c0.386,0.166,0.722,0.39,1.008,0.668
			c0.286,0.281,0.517,0.613,0.689,1C125.457,141.294,125.543,141.706,125.543,142.146z M124.864,148.118v20.49h-4.953v-20.49
			H124.864z"/>
		<path fill="#FFFFFF" d="M138.166,147.798c1.518,0,2.899,0.246,4.144,0.738c1.246,0.492,2.311,1.192,3.196,2.098
			s1.568,2.011,2.047,3.316c0.479,1.304,0.719,2.763,0.719,4.372c0,1.626-0.239,3.09-0.719,4.395
			c-0.479,1.306-1.162,2.417-2.047,3.336s-1.95,1.624-3.196,2.116c-1.244,0.493-2.626,0.739-4.144,0.739
			c-1.531,0-2.923-0.246-4.174-0.739c-1.252-0.492-2.32-1.197-3.206-2.116c-0.886-0.919-1.572-2.03-2.058-3.336
			c-0.486-1.305-0.729-2.769-0.729-4.395c0-1.609,0.243-3.068,0.729-4.372c0.486-1.306,1.172-2.411,2.058-3.316
			c0.885-0.905,1.954-1.605,3.206-2.098C135.242,148.044,136.634,147.798,138.166,147.798z M138.166,165.113
			c1.705,0,2.965-0.572,3.784-1.717c0.819-1.146,1.229-2.823,1.229-5.033s-0.409-3.896-1.229-5.054
			c-0.819-1.157-2.08-1.737-3.784-1.737c-1.731,0-3.012,0.583-3.845,1.747c-0.833,1.166-1.248,2.847-1.248,5.044
			c0,2.196,0.415,3.871,1.248,5.023C135.153,164.538,136.434,165.113,138.166,165.113z"/>
		<path fill="#FFFFFF" d="M163.75,152.111c-0.134,0.214-0.273,0.363-0.419,0.449c-0.147,0.088-0.333,0.13-0.559,0.13
			c-0.239,0-0.497-0.065-0.77-0.2c-0.273-0.133-0.589-0.282-0.948-0.448c-0.359-0.167-0.77-0.316-1.229-0.449
			c-0.459-0.133-1.001-0.2-1.628-0.2c-0.971,0-1.734,0.207-2.287,0.618c-0.552,0.414-0.828,0.953-0.828,1.619
			c0,0.439,0.143,0.81,0.429,1.108c0.287,0.3,0.666,0.562,1.138,0.789c0.473,0.227,1.009,0.429,1.608,0.608
			c0.599,0.18,1.209,0.377,1.827,0.589c0.619,0.214,1.228,0.457,1.828,0.73c0.599,0.272,1.135,0.618,1.607,1.038
			c0.473,0.419,0.853,0.921,1.139,1.507c0.287,0.586,0.43,1.293,0.43,2.118c0,0.985-0.177,1.895-0.529,2.726
			c-0.353,0.832-0.875,1.551-1.568,2.157c-0.692,0.605-1.548,1.079-2.566,1.418c-1.019,0.34-2.193,0.51-3.525,0.51
			c-0.705,0-1.395-0.064-2.066-0.19c-0.673-0.127-1.319-0.302-1.938-0.528c-0.618-0.227-1.191-0.493-1.717-0.8
			c-0.526-0.306-0.988-0.639-1.388-0.998l1.139-1.878c0.146-0.227,0.319-0.399,0.519-0.519c0.2-0.12,0.453-0.181,0.759-0.181
			c0.306,0,0.596,0.087,0.869,0.259c0.272,0.174,0.589,0.36,0.948,0.56c0.359,0.2,0.783,0.387,1.268,0.56
			c0.486,0.174,1.103,0.26,1.847,0.26c0.586,0,1.09-0.07,1.509-0.21c0.419-0.139,0.765-0.321,1.038-0.549
			c0.273-0.226,0.472-0.489,0.599-0.789c0.127-0.299,0.19-0.609,0.19-0.929c0-0.479-0.143-0.872-0.429-1.178
			c-0.287-0.307-0.666-0.572-1.138-0.799c-0.473-0.227-1.012-0.43-1.618-0.609c-0.606-0.181-1.226-0.376-1.858-0.589
			c-0.632-0.214-1.251-0.463-1.857-0.75c-0.606-0.286-1.145-0.648-1.617-1.088c-0.473-0.439-0.853-0.979-1.139-1.618
			c-0.287-0.638-0.43-1.411-0.43-2.316c0-0.839,0.167-1.637,0.5-2.397c0.333-0.759,0.822-1.42,1.468-1.986
			c0.646-0.565,1.452-1.019,2.417-1.358c0.965-0.339,2.08-0.509,3.345-0.509c1.412,0,2.697,0.232,3.855,0.698
			c1.159,0.467,2.124,1.079,2.896,1.838L163.75,152.111z"/>
		<path fill="#FFFFFF" d="M185.887,139.76c0.167,0.019,0.313,0.06,0.441,0.119c0.126,0.06,0.248,0.146,0.368,0.26
			s0.254,0.263,0.399,0.449l15.14,19.333c-0.04-0.466-0.073-0.925-0.101-1.378s-0.039-0.872-0.039-1.259v-17.555h4.731v28.879
			h-2.755c-0.428,0-0.783-0.069-1.067-0.21c-0.287-0.14-0.565-0.376-0.831-0.708l-15.078-19.233
			c0.039,0.426,0.069,0.849,0.091,1.268c0.02,0.42,0.029,0.803,0.029,1.149v17.734h-4.733v-28.879h2.815
			C185.524,139.729,185.722,139.739,185.887,139.76z"/>
		<path fill="#FFFFFF" d="M219.811,147.798c1.291,0,2.482,0.206,3.576,0.619c1.091,0.412,2.029,1.016,2.813,1.807
			c0.786,0.793,1.402,1.765,1.849,2.917c0.445,1.151,0.668,2.466,0.668,3.944c0,0.745-0.079,1.247-0.238,1.507
			c-0.159,0.261-0.467,0.391-0.92,0.391h-12.682c0.079,1.052,0.267,1.96,0.56,2.726c0.294,0.767,0.68,1.398,1.158,1.896
			c0.48,0.5,1.05,0.874,1.707,1.119c0.66,0.247,1.389,0.37,2.188,0.37c0.8,0,1.489-0.093,2.068-0.28
			c0.578-0.187,1.083-0.393,1.518-0.619c0.432-0.227,0.812-0.432,1.137-0.619c0.327-0.186,0.644-0.278,0.949-0.278
			c0.413,0,0.719,0.151,0.919,0.459l1.418,1.798c-0.545,0.638-1.157,1.174-1.837,1.607c-0.68,0.433-1.389,0.779-2.127,1.039
			c-0.74,0.258-1.492,0.441-2.257,0.548c-0.766,0.107-1.508,0.16-2.227,0.16c-1.426,0-2.749-0.236-3.977-0.708
			c-1.225-0.474-2.288-1.172-3.193-2.099c-0.906-0.925-1.619-2.07-2.137-3.435c-0.52-1.365-0.78-2.945-0.78-4.743
			c0-1.398,0.227-2.713,0.68-3.945c0.451-1.23,1.101-2.303,1.947-3.215c0.845-0.912,1.877-1.634,3.096-2.167
			S218.28,147.798,219.811,147.798z M219.91,151.333c-1.438,0-2.563,0.406-3.375,1.218c-0.813,0.813-1.331,1.964-1.558,3.455h9.307
			c0-0.638-0.091-1.242-0.27-1.807c-0.18-0.566-0.449-1.062-0.81-1.488c-0.358-0.426-0.815-0.762-1.368-1.009
			C221.285,151.456,220.644,151.333,219.91,151.333z"/>
		<path fill="#FFFFFF" d="M239.004,168.929c-1.784,0-3.152-0.503-4.104-1.509c-0.953-1.005-1.43-2.393-1.43-4.164v-11.444h-2.098
			c-0.266,0-0.492-0.086-0.677-0.259c-0.188-0.174-0.28-0.433-0.28-0.779v-1.957l3.295-0.54l1.037-5.592
			c0.067-0.266,0.193-0.473,0.381-0.619c0.187-0.146,0.427-0.22,0.719-0.22h2.558v6.451h5.473v3.515h-5.473v11.105
			c0,0.639,0.155,1.138,0.469,1.497s0.742,0.54,1.288,0.54c0.307,0,0.562-0.037,0.77-0.11c0.205-0.073,0.386-0.149,0.54-0.229
			c0.151-0.08,0.287-0.157,0.407-0.229c0.12-0.073,0.24-0.109,0.36-0.109c0.146,0,0.266,0.036,0.36,0.109
			c0.093,0.072,0.193,0.183,0.3,0.329l1.477,2.396c-0.719,0.601-1.544,1.052-2.476,1.358
			C240.967,168.775,240.002,168.929,239.004,168.929z"/>
		<path fill="#FFFFFF" d="M246.554,148.118h3.935c0.358,0,0.666,0.086,0.918,0.258c0.252,0.174,0.419,0.394,0.5,0.661l2.936,10.943
			c0.146,0.6,0.272,1.186,0.379,1.758c0.106,0.573,0.206,1.138,0.299,1.697c0.147-0.56,0.304-1.124,0.471-1.697
			c0.165-0.572,0.343-1.158,0.53-1.758l3.395-10.985c0.079-0.266,0.236-0.484,0.469-0.658c0.232-0.173,0.516-0.26,0.849-0.26h2.178
			c0.347,0,0.643,0.087,0.889,0.26c0.246,0.174,0.409,0.393,0.488,0.658l3.296,10.985c0.174,0.612,0.337,1.205,0.49,1.778
			c0.152,0.572,0.296,1.145,0.43,1.717c0.104-0.572,0.219-1.145,0.339-1.717c0.12-0.573,0.26-1.166,0.419-1.778l3.015-10.943
			c0.095-0.268,0.261-0.487,0.501-0.661c0.238-0.172,0.525-0.258,0.858-0.258h3.755l-6.512,20.49h-3.954
			c-0.453,0-0.767-0.292-0.938-0.879l-3.677-11.843c-0.252-0.812-0.445-1.599-0.579-2.356c-0.159,0.799-0.358,1.598-0.599,2.396
			l-3.735,11.804c-0.159,0.587-0.512,0.879-1.058,0.879h-3.795L246.554,148.118z"/>
		<path fill="#FFFFFF" d="M288.634,147.798c1.519,0,2.898,0.246,4.144,0.738c1.246,0.492,2.312,1.192,3.195,2.098
			c0.887,0.905,1.57,2.011,2.049,3.316c0.479,1.304,0.719,2.763,0.719,4.372c0,1.626-0.24,3.09-0.719,4.395
			c-0.479,1.306-1.162,2.417-2.049,3.336c-0.884,0.919-1.949,1.624-3.195,2.116c-1.245,0.493-2.625,0.739-4.144,0.739
			c-1.532,0-2.922-0.246-4.173-0.739c-1.252-0.492-2.321-1.197-3.206-2.116c-0.886-0.919-1.571-2.03-2.058-3.336
			c-0.486-1.305-0.729-2.769-0.729-4.395c0-1.609,0.242-3.068,0.729-4.372c0.486-1.306,1.172-2.411,2.058-3.316
			c0.885-0.905,1.954-1.605,3.206-2.098C285.712,148.044,287.102,147.798,288.634,147.798z M288.634,165.113
			c1.705,0,2.966-0.572,3.785-1.717c0.819-1.146,1.229-2.823,1.229-5.033s-0.409-3.896-1.229-5.054
			c-0.819-1.157-2.08-1.737-3.785-1.737c-1.73,0-3.013,0.583-3.844,1.747c-0.833,1.166-1.249,2.847-1.249,5.044
			c0,2.196,0.416,3.871,1.249,5.023C285.621,164.538,286.903,165.113,288.634,165.113z"/>
		<path fill="#FFFFFF" d="M301.715,168.608v-20.49h2.897c0.506,0,0.858,0.089,1.057,0.269c0.201,0.18,0.333,0.503,0.4,0.968
			l0.279,2.318c0.652-1.226,1.418-2.188,2.296-2.887c0.879-0.698,1.918-1.048,3.117-1.048c0.945,0,1.704,0.205,2.276,0.619
			l-0.32,3.695c-0.067,0.239-0.164,0.408-0.288,0.508c-0.128,0.101-0.297,0.15-0.51,0.15c-0.201,0-0.496-0.033-0.89-0.101
			c-0.393-0.065-0.776-0.099-1.148-0.099c-0.546,0-1.032,0.079-1.457,0.239c-0.428,0.16-0.81,0.39-1.148,0.688
			c-0.341,0.3-0.64,0.663-0.899,1.088c-0.26,0.427-0.502,0.913-0.729,1.46v12.621H301.715z"/>
		<path fill="#FFFFFF" d="M321.547,138.93v16.996h0.918c0.335,0,0.597-0.042,0.789-0.129c0.193-0.088,0.391-0.263,0.589-0.529
			l5.095-6.291c0.211-0.28,0.449-0.492,0.709-0.64c0.258-0.146,0.595-0.219,1.008-0.219h4.514l-6.37,7.609
			c-0.453,0.598-0.947,1.058-1.479,1.377c0.28,0.2,0.53,0.434,0.749,0.699c0.22,0.266,0.431,0.552,0.63,0.858l6.829,9.946h-4.452
			c-0.388,0-0.719-0.062-0.999-0.189c-0.279-0.126-0.514-0.356-0.698-0.689l-5.232-7.769c-0.188-0.307-0.38-0.506-0.581-0.599
			c-0.199-0.094-0.498-0.14-0.897-0.14h-1.119v9.386h-4.933V138.93H321.547z"/>
	</g>
	<g>
		<path fill="#FFFFFF" d="M24.591,182.958v1.923h-5.77v3.847h4.871v1.933h-4.871v5.294h-2.427v-12.996H24.591z"/>
		<path fill="#FFFFFF" d="M38.854,189.455c0,0.952-0.158,1.835-0.472,2.647c-0.314,0.812-0.76,1.514-1.335,2.106
			c-0.575,0.594-1.267,1.058-2.075,1.39c-0.81,0.333-1.708,0.499-2.696,0.499c-0.983,0-1.879-0.166-2.687-0.499
			c-0.809-0.332-1.503-0.796-2.081-1.39c-0.579-0.593-1.026-1.295-1.344-2.106c-0.317-0.812-0.476-1.695-0.476-2.647
			s0.159-1.835,0.476-2.647c0.318-0.81,0.766-1.513,1.344-2.106c0.578-0.593,1.272-1.056,2.081-1.389
			c0.808-0.332,1.704-0.499,2.687-0.499c0.659,0,1.279,0.077,1.86,0.23c0.581,0.151,1.114,0.368,1.6,0.646
			c0.486,0.28,0.921,0.617,1.308,1.017c0.386,0.397,0.714,0.844,0.984,1.334c0.27,0.491,0.475,1.024,0.616,1.6
			C38.783,188.215,38.854,188.82,38.854,189.455z M36.382,189.455c0-0.714-0.096-1.353-0.287-1.918
			c-0.192-0.566-0.465-1.047-0.818-1.442c-0.353-0.396-0.784-0.698-1.291-0.908c-0.505-0.209-1.077-0.315-1.711-0.315
			c-0.636,0-1.207,0.106-1.712,0.315c-0.506,0.21-0.938,0.513-1.295,0.908c-0.356,0.396-0.63,0.876-0.822,1.442
			c-0.192,0.565-0.287,1.204-0.287,1.918c0,0.713,0.095,1.353,0.287,1.919s0.466,1.046,0.822,1.439
			c0.356,0.392,0.789,0.692,1.295,0.901c0.506,0.211,1.077,0.315,1.712,0.315c0.634,0,1.206-0.104,1.711-0.315
			c0.507-0.209,0.938-0.51,1.291-0.901c0.354-0.394,0.626-0.873,0.818-1.439C36.286,190.808,36.382,190.168,36.382,189.455z"/>
		<path fill="#FFFFFF" d="M43.401,190.876v5.078h-2.418v-12.996h3.964c0.881,0,1.637,0.092,2.269,0.273
			c0.633,0.184,1.151,0.439,1.555,0.77c0.405,0.329,0.703,0.723,0.894,1.182c0.192,0.458,0.288,0.963,0.288,1.514
			c0,0.438-0.064,0.852-0.193,1.241c-0.129,0.389-0.314,0.742-0.557,1.06s-0.542,0.597-0.898,0.837
			c-0.356,0.239-0.762,0.431-1.218,0.573c0.306,0.176,0.57,0.423,0.791,0.747l3.253,4.8h-2.184c-0.414,0-0.714-0.162-0.899-0.485
			l-2.731-4.161c-0.103-0.156-0.214-0.267-0.337-0.333c-0.123-0.065-0.304-0.099-0.544-0.099H43.401z M43.401,189.142h1.509
			c0.456,0,0.853-0.058,1.192-0.172c0.338-0.113,0.616-0.271,0.835-0.472c0.218-0.2,0.381-0.438,0.49-0.714
			c0.108-0.275,0.162-0.578,0.162-0.908c0-0.659-0.217-1.165-0.652-1.519c-0.435-0.354-1.099-0.53-1.991-0.53h-1.546V189.142z"/>
		<path fill="#FFFFFF" d="M68.88,195.954h-1.869c-0.21,0-0.38-0.054-0.512-0.158c-0.132-0.104-0.23-0.234-0.296-0.391l-0.97-2.651
			h-5.384l-0.971,2.651c-0.047,0.138-0.141,0.264-0.278,0.377c-0.139,0.114-0.31,0.172-0.513,0.172h-1.887l5.113-12.996h2.463
			L68.88,195.954z M60.468,191.047h4.144l-1.583-4.323c-0.077-0.192-0.158-0.418-0.243-0.679c-0.083-0.261-0.167-0.544-0.251-0.85
			c-0.083,0.306-0.166,0.591-0.247,0.854c-0.081,0.264-0.16,0.494-0.238,0.692L60.468,191.047z"/>
		<path fill="#FFFFFF" d="M72.646,193.958h5.194v1.996h-7.612v-12.996h2.418V193.958z"/>
		<path fill="#FFFFFF" d="M91.781,195.954h-1.869c-0.21,0-0.38-0.054-0.512-0.158c-0.132-0.104-0.23-0.234-0.296-0.391l-0.971-2.651
			h-5.384l-0.971,2.651c-0.047,0.138-0.141,0.264-0.278,0.377c-0.139,0.114-0.31,0.172-0.513,0.172H79.1l5.113-12.996h2.463
			L91.781,195.954z M83.369,191.047h4.144l-1.583-4.323c-0.078-0.192-0.159-0.418-0.243-0.679c-0.083-0.261-0.167-0.544-0.252-0.85
			c-0.083,0.306-0.165,0.591-0.247,0.854c-0.081,0.264-0.16,0.494-0.239,0.692L83.369,191.047z"/>
		<path fill="#FFFFFF" d="M100.409,185.321c-0.072,0.126-0.148,0.218-0.229,0.273c-0.081,0.058-0.182,0.086-0.302,0.086
			c-0.125,0-0.262-0.045-0.408-0.139c-0.147-0.093-0.323-0.196-0.526-0.311c-0.204-0.113-0.442-0.217-0.714-0.31
			c-0.273-0.093-0.595-0.14-0.966-0.14c-0.336,0-0.629,0.041-0.881,0.12c-0.252,0.082-0.463,0.194-0.634,0.338
			c-0.17,0.144-0.298,0.316-0.381,0.518c-0.084,0.199-0.126,0.42-0.126,0.659c0,0.307,0.086,0.562,0.256,0.765
			c0.17,0.204,0.396,0.378,0.679,0.521c0.282,0.144,0.602,0.272,0.961,0.386c0.359,0.114,0.728,0.236,1.106,0.365
			c0.377,0.129,0.746,0.277,1.105,0.448c0.359,0.172,0.681,0.387,0.961,0.647c0.282,0.261,0.509,0.58,0.679,0.957
			c0.17,0.378,0.256,0.836,0.256,1.375c0,0.588-0.101,1.137-0.301,1.65c-0.201,0.512-0.494,0.958-0.881,1.338
			c-0.387,0.381-0.859,0.68-1.417,0.898c-0.556,0.22-1.195,0.329-1.914,0.329c-0.414,0-0.821-0.04-1.222-0.122
			c-0.402-0.081-0.787-0.196-1.155-0.346c-0.368-0.149-0.714-0.329-1.039-0.539c-0.324-0.209-0.611-0.443-0.863-0.701l0.711-1.16
			c0.06-0.083,0.137-0.153,0.233-0.211c0.095-0.057,0.198-0.085,0.306-0.085c0.149,0,0.312,0.062,0.485,0.185
			c0.174,0.123,0.38,0.259,0.62,0.408c0.24,0.15,0.52,0.286,0.84,0.409s0.706,0.185,1.155,0.185c0.689,0,1.223-0.163,1.599-0.49
			c0.378-0.325,0.567-0.795,0.567-1.405c0-0.343-0.085-0.621-0.256-0.837c-0.17-0.215-0.396-0.397-0.679-0.543
			c-0.281-0.147-0.602-0.271-0.961-0.374c-0.359-0.102-0.725-0.212-1.096-0.332c-0.371-0.12-0.737-0.264-1.097-0.431
			c-0.359-0.168-0.68-0.388-0.962-0.657c-0.281-0.269-0.507-0.606-0.678-1.011c-0.17-0.404-0.255-0.903-0.255-1.497
			c0-0.473,0.094-0.935,0.283-1.383c0.188-0.45,0.462-0.849,0.822-1.195c0.359-0.348,0.803-0.628,1.33-0.836
			c0.527-0.21,1.133-0.315,1.815-0.315c0.768,0,1.474,0.12,2.122,0.359c0.646,0.24,1.198,0.576,1.654,1.007L100.409,185.321z"/>
		<path fill="#FFFFFF" d="M105.765,188.404h0.566c0.228,0,0.417-0.032,0.566-0.095c0.149-0.063,0.278-0.164,0.386-0.302l3.586-4.538
			c0.149-0.191,0.307-0.324,0.472-0.4c0.164-0.074,0.373-0.111,0.624-0.111h2.085l-4.377,5.401c-0.256,0.329-0.524,0.563-0.8,0.7
			c0.198,0.072,0.376,0.173,0.535,0.302c0.16,0.129,0.311,0.298,0.454,0.508l4.512,6.085h-2.129c-0.288,0-0.502-0.042-0.643-0.122
			c-0.141-0.081-0.26-0.199-0.355-0.354l-3.675-4.799c-0.115-0.162-0.246-0.277-0.396-0.343s-0.365-0.099-0.647-0.099h-0.764v5.717
			h-2.418v-12.996h2.418V188.404z"/>
		<path fill="#FFFFFF" d="M127.522,195.954h-1.869c-0.21,0-0.381-0.054-0.513-0.158c-0.132-0.104-0.23-0.234-0.296-0.391
			l-0.97-2.651h-5.384l-0.97,2.651c-0.048,0.138-0.141,0.264-0.278,0.377c-0.138,0.114-0.31,0.172-0.512,0.172h-1.887l5.113-12.996
			h2.462L127.522,195.954z M119.11,191.047h4.144l-1.583-4.323c-0.077-0.192-0.158-0.418-0.243-0.679
			c-0.083-0.261-0.167-0.544-0.252-0.85c-0.083,0.306-0.166,0.591-0.247,0.854c-0.081,0.264-0.16,0.494-0.238,0.692L119.11,191.047z
			"/>
		<path fill="#FFFFFF" d="M138.739,185.412v3.684h3.488v1.645h-3.488v3.703h-1.806v-3.703h-3.47v-1.645h3.47v-3.684H138.739z"/>
		<path fill="#FFFFFF" d="M160.839,195.954h-1.869c-0.21,0-0.38-0.054-0.513-0.158c-0.132-0.104-0.23-0.234-0.296-0.391
			l-0.971-2.651h-5.384l-0.97,2.651c-0.048,0.138-0.141,0.264-0.278,0.377c-0.138,0.114-0.31,0.172-0.513,0.172h-1.887l5.113-12.996
			h2.463L160.839,195.954z M152.427,191.047h4.144l-1.583-4.323c-0.077-0.192-0.158-0.418-0.243-0.679
			c-0.083-0.261-0.167-0.544-0.251-0.85c-0.083,0.306-0.166,0.591-0.247,0.854c-0.081,0.264-0.161,0.494-0.239,0.692
			L152.427,191.047z"/>
		<path fill="#FFFFFF" d="M164.965,190.876v5.078h-2.417v-12.996h3.964c0.881,0,1.637,0.092,2.269,0.273
			c0.633,0.184,1.151,0.439,1.555,0.77c0.405,0.329,0.703,0.723,0.895,1.182c0.191,0.458,0.287,0.963,0.287,1.514
			c0,0.438-0.064,0.852-0.193,1.241c-0.129,0.389-0.315,0.742-0.558,1.06s-0.542,0.597-0.898,0.837
			c-0.356,0.239-0.762,0.431-1.218,0.573c0.306,0.176,0.569,0.423,0.791,0.747l3.254,4.8h-2.184c-0.414,0-0.714-0.162-0.899-0.485
			l-2.732-4.161c-0.102-0.156-0.214-0.267-0.336-0.333c-0.123-0.065-0.305-0.099-0.545-0.099H164.965z M164.965,189.142h1.51
			c0.456,0,0.853-0.058,1.191-0.172c0.338-0.113,0.617-0.271,0.835-0.472c0.218-0.2,0.382-0.438,0.491-0.714
			c0.107-0.275,0.161-0.578,0.161-0.908c0-0.659-0.217-1.165-0.652-1.519c-0.434-0.354-1.098-0.53-1.99-0.53h-1.546V189.142z"/>
		<path fill="#FFFFFF" d="M183.191,192.889c0.132,0,0.248,0.052,0.35,0.152l0.953,1.034c-0.527,0.653-1.175,1.153-1.945,1.501
			c-0.77,0.349-1.693,0.521-2.772,0.521c-0.965,0-1.831-0.165-2.602-0.494c-0.771-0.33-1.428-0.788-1.973-1.376
			c-0.545-0.587-0.963-1.287-1.253-2.103c-0.29-0.814-0.436-1.704-0.436-2.67c0-0.977,0.155-1.87,0.467-2.683
			c0.312-0.812,0.75-1.512,1.317-2.098c0.566-0.588,1.241-1.045,2.026-1.372c0.786-0.326,1.654-0.489,2.605-0.489
			c0.947,0,1.788,0.156,2.522,0.468c0.734,0.311,1.359,0.72,1.873,1.222l-0.808,1.123c-0.049,0.073-0.11,0.136-0.185,0.189
			c-0.075,0.054-0.178,0.082-0.31,0.082c-0.091,0-0.183-0.025-0.279-0.078c-0.097-0.05-0.201-0.113-0.313-0.188
			c-0.116-0.075-0.248-0.157-0.397-0.248c-0.149-0.089-0.323-0.172-0.521-0.247c-0.196-0.074-0.427-0.138-0.687-0.188
			c-0.262-0.052-0.563-0.078-0.904-0.078c-0.581,0-1.112,0.104-1.595,0.312c-0.482,0.206-0.898,0.506-1.245,0.897
			c-0.348,0.394-0.616,0.873-0.808,1.438c-0.191,0.566-0.288,1.212-0.288,1.937c0,0.732,0.104,1.381,0.31,1.951
			c0.208,0.569,0.486,1.049,0.84,1.438c0.354,0.388,0.77,0.688,1.248,0.894c0.48,0.206,0.995,0.31,1.546,0.31
			c0.331,0,0.628-0.018,0.896-0.054c0.266-0.036,0.512-0.093,0.736-0.17c0.225-0.079,0.438-0.179,0.638-0.303
			c0.201-0.122,0.4-0.273,0.599-0.453c0.06-0.054,0.122-0.098,0.188-0.129C183.051,192.904,183.12,192.889,183.191,192.889z"/>
		<path fill="#FFFFFF" d="M195.953,182.958v1.986h-3.919v11.01h-2.418v-11.01h-3.919v-1.986H195.953z"/>
		<path fill="#FFFFFF" d="M200.806,195.954h-2.429v-12.996h2.429V195.954z"/>
		<path fill="#FFFFFF" d="M213.352,192.889c0.132,0,0.25,0.052,0.351,0.152l0.953,1.034c-0.528,0.653-1.176,1.153-1.946,1.501
			c-0.77,0.349-1.693,0.521-2.772,0.521c-0.965,0-1.831-0.165-2.602-0.494c-0.77-0.33-1.428-0.788-1.973-1.376
			c-0.546-0.587-0.963-1.287-1.255-2.103c-0.289-0.814-0.435-1.704-0.435-2.67c0-0.977,0.155-1.87,0.467-2.683
			c0.312-0.812,0.75-1.512,1.317-2.098c0.566-0.588,1.24-1.045,2.026-1.372c0.785-0.326,1.653-0.489,2.606-0.489
			c0.947,0,1.786,0.156,2.521,0.468c0.735,0.311,1.359,0.72,1.875,1.222l-0.81,1.123c-0.047,0.073-0.11,0.136-0.185,0.189
			c-0.075,0.054-0.178,0.082-0.31,0.082c-0.091,0-0.183-0.025-0.279-0.078c-0.095-0.05-0.199-0.113-0.313-0.188
			c-0.114-0.075-0.246-0.157-0.396-0.248c-0.151-0.089-0.325-0.172-0.521-0.247c-0.197-0.074-0.428-0.138-0.688-0.188
			c-0.262-0.052-0.562-0.078-0.904-0.078c-0.581,0-1.112,0.104-1.595,0.312c-0.482,0.206-0.898,0.506-1.244,0.897
			c-0.349,0.394-0.617,0.873-0.81,1.438c-0.191,0.566-0.288,1.212-0.288,1.937c0,0.732,0.104,1.381,0.312,1.951
			c0.207,0.569,0.486,1.049,0.839,1.438c0.354,0.388,0.77,0.688,1.25,0.894c0.479,0.206,0.995,0.31,1.546,0.31
			c0.329,0,0.627-0.018,0.895-0.054c0.266-0.036,0.512-0.093,0.736-0.17c0.225-0.079,0.438-0.179,0.638-0.303
			c0.201-0.122,0.4-0.273,0.599-0.453c0.06-0.054,0.122-0.098,0.188-0.129C213.211,192.904,213.28,192.889,213.352,192.889z"/>
		<path fill="#FFFFFF" d="M225.261,191.379v4.575h-2.418v-12.996h4.224c0.869,0,1.621,0.102,2.257,0.306
			c0.634,0.202,1.158,0.488,1.571,0.854c0.414,0.365,0.721,0.804,0.922,1.312c0.201,0.51,0.302,1.067,0.302,1.672
			c0,0.63-0.104,1.206-0.315,1.729c-0.209,0.525-0.523,0.976-0.943,1.354s-0.945,0.671-1.577,0.881s-1.371,0.314-2.216,0.314
			H225.261z M225.261,189.491h1.806c0.443,0,0.829-0.055,1.16-0.167c0.329-0.11,0.603-0.269,0.821-0.476
			c0.219-0.206,0.382-0.457,0.49-0.755c0.108-0.296,0.161-0.627,0.161-0.993c0-0.347-0.053-0.662-0.161-0.942
			c-0.108-0.282-0.27-0.521-0.484-0.72c-0.217-0.198-0.488-0.35-0.817-0.454c-0.331-0.104-0.721-0.157-1.17-0.157h-1.806V189.491z"
			/>
		<path fill="#FFFFFF" d="M237.105,193.958h5.195v1.996h-7.613v-12.996h2.418V193.958z"/>
		<path fill="#FFFFFF" d="M256.599,195.954h-1.868c-0.209,0-0.381-0.054-0.513-0.158c-0.132-0.104-0.23-0.234-0.295-0.391
			l-0.971-2.651h-5.384l-0.971,2.651c-0.05,0.138-0.143,0.264-0.28,0.377c-0.138,0.114-0.309,0.172-0.512,0.172h-1.887l5.112-12.996
			h2.463L256.599,195.954z M248.187,191.047h4.146l-1.584-4.323c-0.076-0.192-0.157-0.418-0.242-0.679
			c-0.082-0.261-0.167-0.544-0.252-0.85c-0.083,0.306-0.165,0.591-0.246,0.854c-0.081,0.264-0.161,0.494-0.238,0.692
			L248.187,191.047z"/>
		<path fill="#FFFFFF" d="M259.84,182.971c0.075,0.01,0.14,0.026,0.197,0.055c0.057,0.027,0.112,0.065,0.167,0.117
			c0.054,0.05,0.114,0.118,0.18,0.201l6.813,8.7c-0.02-0.21-0.033-0.417-0.048-0.62c-0.01-0.204-0.016-0.393-0.016-0.566v-7.899
			h2.129v12.996h-1.24c-0.191,0-0.353-0.031-0.48-0.095s-0.254-0.17-0.372-0.319l-6.786-8.654c0.018,0.192,0.031,0.381,0.039,0.57
			c0.01,0.188,0.014,0.361,0.014,0.517v7.981h-2.131v-12.996h1.269C259.677,182.958,259.766,182.962,259.84,182.971z"/>
		<path fill="#FFFFFF" d="M274.048,182.971c0.075,0.01,0.142,0.026,0.199,0.055c0.057,0.027,0.11,0.065,0.165,0.117
			c0.056,0.05,0.114,0.118,0.18,0.201l6.813,8.7c-0.019-0.21-0.034-0.417-0.046-0.62c-0.012-0.204-0.018-0.393-0.018-0.566v-7.899
			h2.129v12.996h-1.241c-0.19,0-0.35-0.031-0.479-0.095c-0.13-0.063-0.254-0.17-0.374-0.319l-6.785-8.654
			c0.018,0.192,0.031,0.381,0.041,0.57c0.008,0.188,0.014,0.361,0.014,0.517v7.981h-2.131v-12.996h1.269
			C273.885,182.958,273.973,182.962,274.048,182.971z"/>
		<path fill="#FFFFFF" d="M289.151,195.954h-2.428v-12.996h2.428V195.954z"/>
		<path fill="#FFFFFF" d="M293.944,182.971c0.075,0.01,0.143,0.026,0.199,0.055c0.058,0.027,0.11,0.065,0.165,0.117
			c0.056,0.05,0.114,0.118,0.182,0.201l6.812,8.7c-0.018-0.21-0.033-0.417-0.046-0.62c-0.012-0.204-0.018-0.393-0.018-0.566v-7.899
			h2.131v12.996h-1.24c-0.193,0-0.353-0.031-0.48-0.095c-0.13-0.063-0.254-0.17-0.374-0.319l-6.784-8.654
			c0.016,0.192,0.031,0.381,0.039,0.57c0.008,0.188,0.014,0.361,0.014,0.517v7.981h-2.13v-12.996h1.268
			C293.781,182.958,293.87,182.962,293.944,182.971z"/>
		<path fill="#FFFFFF" d="M315.586,195.761c-0.746,0.224-1.546,0.337-2.396,0.337c-1.06,0-2.019-0.165-2.879-0.494
			c-0.86-0.33-1.593-0.788-2.201-1.376c-0.608-0.587-1.077-1.287-1.408-2.103c-0.329-0.814-0.494-1.704-0.494-2.67
			c0-0.977,0.159-1.872,0.477-2.687c0.317-0.815,0.768-1.517,1.353-2.104c0.585-0.588,1.294-1.042,2.127-1.366
			c0.831-0.324,1.767-0.485,2.804-0.485c0.526,0,1.021,0.042,1.478,0.126c0.459,0.085,0.884,0.199,1.277,0.347
			c0.393,0.146,0.749,0.325,1.073,0.534c0.323,0.21,0.621,0.44,0.891,0.691l-0.693,1.097c-0.108,0.175-0.248,0.28-0.424,0.32
			c-0.173,0.038-0.361-0.006-0.564-0.131c-0.197-0.114-0.396-0.228-0.593-0.342c-0.199-0.113-0.42-0.213-0.662-0.296
			c-0.242-0.084-0.514-0.154-0.817-0.207c-0.301-0.055-0.651-0.082-1.047-0.082c-0.641,0-1.219,0.109-1.739,0.324
			c-0.518,0.217-0.959,0.524-1.325,0.926c-0.366,0.402-0.646,0.884-0.845,1.448c-0.197,0.562-0.295,1.191-0.295,1.886
			c0,0.744,0.106,1.406,0.316,1.991c0.215,0.584,0.515,1.078,0.9,1.482c0.386,0.405,0.853,0.713,1.396,0.926
			c0.546,0.213,1.154,0.319,1.826,0.319c0.48,0,0.907-0.05,1.285-0.147c0.377-0.1,0.745-0.236,1.105-0.41v-2.363h-1.637
			c-0.155,0-0.275-0.043-0.362-0.131c-0.089-0.086-0.132-0.192-0.132-0.318v-1.366h4.314v5.257
			C317.035,195.181,316.333,195.535,315.586,195.761z"/>
	</g>
</g>
</svg>
